<svg id="Layer_1" data-name="Layer 1" xmlns="http://www.w3.org/2000/svg" width="96" height="96" viewBox="0 0 96 96">
  <defs>
    <style>
      .cls-1, .cls-2 {
        fill: #181617;
      }

      .cls-1 {
        fill-rule: evenodd;
      }
    </style>
  </defs>
  <title>gh</title>
  <path class="cls-1" d="M48.08,1A47.977,47.977,0,0,0,32.914,94.492c2.4.444,3.278-1.041,3.278-2.308,0-1.144-.045-4.923-.065-8.931-13.346,2.9-16.162-5.66-16.162-5.66-2.182-5.545-5.327-7.02-5.327-7.02-4.352-2.977.329-2.916.329-2.916C19.784,68,22.32,72.6,22.32,72.6c4.279,7.333,11.223,5.213,13.96,3.987a10.218,10.218,0,0,1,3.046-6.414C28.671,68.961,17.47,64.847,17.47,46.466A18.567,18.567,0,0,1,22.412,33.59c-.5-1.208-2.14-6.088.465-12.7,0,0,4.028-1.29,13.2,4.917a45.506,45.506,0,0,1,24.024,0C69.253,19.605,73.276,20.9,73.276,20.9c2.611,6.607.969,11.487.471,12.7a18.532,18.532,0,0,1,4.937,12.876c0,18.425-11.223,22.482-21.9,23.67,1.721,1.488,3.254,4.408,3.254,8.883,0,6.419-.056,11.585-.056,13.165,0,1.277.864,2.772,3.3,2.3A47.978,47.978,0,0,0,48.08,1"/>
  <path class="cls-2" d="M18.278,69.877c-.106.238-.481.31-.823.146s-.543-.482-.43-.721"/>
  <path class="cls-2" d="M20.221,72.044c-.229.212-.676.113-.98-.222a.733.733,0,0,1-.14-1c.235-.212.669-.113.984.222s.375.782.136,1"/>
  <path class="cls-2" d="M22.112,74.807c-.294.2-.774.012-1.072-.414s-.293-.938.007-1.143.771-.021,1.072.4.293.946-.007,1.155"/>
  <path class="cls-2" d="M24.7,77.476c-.263.29-.823.212-1.233-.184s-.536-.935-.272-1.225.829-.209,1.242.183.544.939.263,1.226"/>
  <path class="cls-2" d="M26.291,78.428c.113-.378.655-.556,1.2-.385s.9.6.785.983"/>
  <path class="cls-2" d="M32.2,79.313c.013.4-.447.724-1.018.731s-1.037-.307-1.043-.7"/>
  <path class="cls-2" d="M35.857,78.691c.069.386-.328.783-.894.888s-1.073-.136-1.143-.519"/>
</svg>
